ISO-10303-21;
HEADER;
/* Generated by software containing ST-Developer
 * from STEP Tools, Inc. (www.steptools.com) 
 */

FILE_DESCRIPTION(
/* description */ (''),
/* implementation_level */ '2;1');

FILE_NAME(
/* name */ 'Frame Stand.step',
/* time_stamp */ '2026-01-22T08:31:04+05:30',
/* author */ (''),
/* organization */ (''),
/* preprocessor_version */ 'ST-DEVELOPER v20.1',
/* originating_system */ 'Autodesk Translation Framework v14.21.0.0',
/* authorisation */ '');

FILE_SCHEMA (('AUTOMOTIVE_DESIGN { 1 0 10303 214 3 1 1 }'));
ENDSEC;

DATA;
#10=MECHANICAL_DESIGN_GEOMETRIC_PRESENTATION_REPRESENTATION('',(#13),#965);
#11=SHAPE_REPRESENTATION_RELATIONSHIP('SRR','None',#972,#12);
#12=ADVANCED_BREP_SHAPE_REPRESENTATION('',(#14),#964);
#13=STYLED_ITEM('',(#982),#14);
#14=MANIFOLD_SOLID_BREP('Body',#398);
#15=CONICAL_SURFACE('',#427,40.625,0.785398163397448);
#16=B_SPLINE_CURVE_WITH_KNOTS('',3,(#567,#568,#569,#570,#571,#572,#573,
#574,#575,#576),.UNSPECIFIED.,.F.,.F.,(4,2,2,2,4),(0.,0.0950086629973751,
0.19001732599475,0.284979350308845,0.37994137462294),.UNSPECIFIED.);
#17=B_SPLINE_CURVE_WITH_KNOTS('',3,(#580,#581,#582,#583,#584,#585,#586,
#587,#588,#589),.UNSPECIFIED.,.F.,.F.,(4,2,2,2,4),(1.15214309782465,1.24803529886456,
1.34392749990447,1.440059148502,1.53619079709953),.UNSPECIFIED.);
#18=B_SPLINE_CURVE_WITH_KNOTS('',3,(#591,#592,#593,#594,#595,#596,#597,
#598,#599,#600,#601,#602,#603,#604,#605,#606,#607,#608),.UNSPECIFIED.,.F.,
 .F.,(4,2,2,2,2,2,2,2,4),(0.38404769927488,0.479939900314792,0.575832101354705,
0.671963749952234,0.768095398549764,0.864227047147293,0.960358695744822,
1.05625089678473,1.15214309782465),.UNSPECIFIED.);
#19=B_SPLINE_CURVE_WITH_KNOTS('',3,(#609,#610,#611,#612,#613,#614,#615,
#616,#617,#618),.UNSPECIFIED.,.F.,.F.,(4,2,2,2,4),(0.,0.0961316485975287,
0.192263297195057,0.288155498234969,0.38404769927488),.UNSPECIFIED.);
#20=B_SPLINE_CURVE_WITH_KNOTS('',3,(#620,#621,#622,#623,#624,#625,#626,
#627,#628,#629),.UNSPECIFIED.,.F.,.F.,(4,2,2,2,4),(1.13982412386882,1.23478614818292,
1.32974817249701,1.42475683549439,1.51976549849176),.UNSPECIFIED.);
#21=B_SPLINE_CURVE_WITH_KNOTS('',3,(#630,#631,#632,#633,#634,#635,#636,
#637,#638,#639,#640,#641,#642,#643,#644,#645,#646,#647),.UNSPECIFIED.,.F.,
 .F.,(4,2,2,2,2,2,2,2,4),(0.37994137462294,0.474903398937035,0.569865423251131,
0.664874086248506,0.759882749245882,0.854891412243257,0.949900075240632,
1.04486209955473,1.13982412386882),.UNSPECIFIED.);
#22=B_SPLINE_CURVE_WITH_KNOTS('',3,(#650,#651,#652,#653,#654,#655,#656,
#657,#658,#659,#660,#661,#662,#663,#664,#665,#666,#667,#668,#669,#670,#671,
#672,#673,#674,#675,#676,#677,#678,#679,#680,#681,#682,#683),
 .UNSPECIFIED.,.T.,.F.,(4,2,2,2,2,2,2,2,2,2,2,2,2,2,2,2,4),(0.,0.0961316485975287,
0.192263297195057,0.288155498234969,0.38404769927488,0.479939900314793,
0.575832101354705,0.671963749952234,0.768095398549763,0.864227047147293,
0.960358695744822,1.05625089678473,1.15214309782465,1.24803529886456,1.34392749990447,
1.440059148502,1.53619079709953),.UNSPECIFIED.);
#23=B_SPLINE_CURVE_WITH_KNOTS('',3,(#686,#687,#688,#689,#690,#691,#692,
#693,#694,#695,#696,#697,#698,#699,#700,#701,#702,#703,#704,#705,#706,#707,
#708,#709,#710,#711,#712,#713,#714,#715,#716,#717,#718,#719),
 .UNSPECIFIED.,.T.,.F.,(4,2,2,2,2,2,2,2,2,2,2,2,2,2,2,2,4),(0.,0.0950086629973751,
0.19001732599475,0.284979350308845,0.37994137462294,0.474903398937036,0.569865423251131,
0.664874086248506,0.759882749245882,0.854891412243257,0.949900075240632,
1.04486209955473,1.13982412386882,1.23478614818292,1.32974817249701,1.42475683549439,
1.51976549849176),.UNSPECIFIED.);
#24=B_SPLINE_CURVE_WITH_KNOTS('',3,(#740,#741,#742,#743,#744,#745,#746,
#747,#748,#749),.UNSPECIFIED.,.F.,.F.,(4,2,2,2,4),(4.33039919536144,4.56475475391968,
4.79911031247793,5.15329486496389,5.50747941744985),.UNSPECIFIED.);
#25=B_SPLINE_CURVE_WITH_KNOTS('',3,(#751,#752,#753,#754,#755,#756,#757,
#758,#759,#760,#761,#762),.UNSPECIFIED.,.F.,.F.,(4,2,2,2,2,4),(0.,0.43267214519657,
0.86534429039314,1.22100188851483,1.39883068757567,1.57665948663652),
 .UNSPECIFIED.);
#26=B_SPLINE_CURVE_WITH_KNOTS('',3,(#766,#767,#768,#769,#770,#771,#772,
#773,#774,#775,#776,#777,#778,#779,#780,#781,#782,#783,#784,#785),
 .UNSPECIFIED.,.F.,.F.,(4,2,2,2,2,2,2,2,2,4),(1.57665948663652,1.75448828569736,
1.9323170847582,2.28797468287989,2.72064682807646,3.15331897327303,3.50750352575899,
3.86168807824495,4.0960436368032,4.33039919536144),.UNSPECIFIED.);
#27=B_SPLINE_CURVE_WITH_KNOTS('',3,(#788,#789,#790,#791,#792,#793,#794,
#795,#796,#797,#798,#799,#800,#801,#802,#803,#804,#805,#806,#807,#808,#809,
#810,#811,#812,#813,#814,#815,#816,#817,#818,#819,#820,#821,#822,#823,#824,
#825,#826),.UNSPECIFIED.,.F.,.F.,(4,2,2,2,2,2,2,2,2,2,3,2,2,2,2,2,2,2,4),
(-2.91565864802162,-2.72064682684918,-2.28797468184678,-1.93231708388629,
-1.75448828490604,-1.57665948592579,-1.39883068694554,-1.22100188796529,
-0.865344290004796,-0.432672145002398,0.,0.354184552673712,0.708369105347425,
0.942724664062146,1.17708022277687,1.41143578149159,1.64579134020631,1.99997589288002,
2.34697538916961),.UNSPECIFIED.);
#28=B_SPLINE_CURVE_WITH_KNOTS('',3,(#827,#828,#829,#830,#831,#832),
 .UNSPECIFIED.,.F.,.F.,(4,2,4),(-3.16050402823571,-3.15331897185158,-2.91565864802162),
 .UNSPECIFIED.);
#29=B_SPLINE_CURVE_WITH_KNOTS('',3,(#835,#836,#837,#838),.UNSPECIFIED.,
 .F.,.F.,(4,4),(0.,0.237660324640558),.UNSPECIFIED.);
#30=B_SPLINE_CURVE_WITH_KNOTS('',3,(#839,#840,#841,#842,#843,#844,#845,
#846,#847,#848,#849,#850,#851,#852,#853,#854,#855,#856,#857,#858,#859,#860,
#861,#862,#863,#864,#865,#866,#867,#868,#869,#870,#871,#872,#873,#874,#875,
#876),.UNSPECIFIED.,.F.,.F.,(4,2,2,2,2,2,2,2,2,2,2,2,2,2,2,2,2,2,4),(0.237660324640558,
0.43267214519657,0.865344290393141,1.22100188851483,1.39883068757567,1.57665948663652,
1.75448828569736,1.9323170847582,2.28797468287989,2.72064682807646,3.15331897327303,
3.50750352575899,3.86168807824496,4.0960436368032,4.33039919536144,4.56475475391969,
4.79911031247793,5.15329486496389,5.50747941744985),.UNSPECIFIED.);
#31=B_SPLINE_CURVE_WITH_KNOTS('',3,(#879,#880,#881,#882,#883,#884,#885,
#886,#887,#888,#889,#890),.UNSPECIFIED.,.F.,.F.,(4,2,2,2,2,4),(0.,0.43267214519657,
0.86534429039314,1.22100188851483,1.39883068757567,1.57665948663652),
 .UNSPECIFIED.);
#32=B_SPLINE_CURVE_WITH_KNOTS('',3,(#891,#892,#893,#894,#895,#896,#897,
#898,#899,#900,#901,#902,#903,#904,#905,#906,#907,#908,#909,#910,#911,#912,
#913,#914,#915,#916,#917,#918),.UNSPECIFIED.,.F.,.F.,(4,2,2,2,2,2,2,2,2,
2,2,2,2,4),(1.57665948663652,1.75448828569736,1.9323170847582,2.28797468287989,
2.72064682807646,3.15331897327303,3.50750352575899,3.86168807824495,4.0960436368032,
4.33039919536144,4.56475475391968,4.79911031247793,5.15329486496389,5.50747941744985),
 .UNSPECIFIED.);
#33=LINE('',#563,#50);
#34=LINE('',#578,#51);
#35=LINE('',#685,#52);
#36=LINE('',#738,#53);
#37=LINE('',#764,#54);
#38=LINE('',#921,#55);
#39=LINE('',#927,#56);
#40=LINE('',#930,#57);
#41=LINE('',#937,#58);
#42=LINE('',#943,#59);
#43=LINE('',#945,#60);
#44=LINE('',#947,#61);
#45=LINE('',#949,#62);
#46=LINE('',#951,#63);
#47=LINE('',#955,#64);
#48=LINE('',#957,#65);
#49=LINE('',#961,#66);
#50=VECTOR('',#465,6.25);
#51=VECTOR('',#468,3.125);
#52=VECTOR('',#471,3.125);
#53=VECTOR('',#492,40.625);
#54=VECTOR('',#493,40.625);
#55=VECTOR('',#498,9.375);
#56=VECTOR('',#507,9.375);
#57=VECTOR('',#510,9.375);
#58=VECTOR('',#519,9.375);
#59=VECTOR('',#528,6.25);
#60=VECTOR('',#531,6.25);
#61=VECTOR('',#534,6.25);
#62=VECTOR('',#537,9.375);
#63=VECTOR('',#538,9.375);
#64=VECTOR('',#545,6.25);
#65=VECTOR('',#546,6.25);
#66=VECTOR('',#553,62.5);
#67=CYLINDRICAL_SURFACE('',#415,6.25);
#68=CYLINDRICAL_SURFACE('',#417,3.125);
#69=CYLINDRICAL_SURFACE('',#418,3.125);
#70=CYLINDRICAL_SURFACE('',#430,9.375);
#71=CYLINDRICAL_SURFACE('',#434,9.375);
#72=CYLINDRICAL_SURFACE('',#435,9.375);
#73=CYLINDRICAL_SURFACE('',#439,9.375);
#74=CYLINDRICAL_SURFACE('',#443,6.25);
#75=CYLINDRICAL_SURFACE('',#444,6.25);
#76=CYLINDRICAL_SURFACE('',#445,6.25);
#77=CYLINDRICAL_SURFACE('',#446,9.25);
#78=CYLINDRICAL_SURFACE('',#449,6.375);
#79=CYLINDRICAL_SURFACE('',#452,62.5);
#80=FACE_BOUND('',#118,.T.);
#81=FACE_BOUND('',#123,.T.);
#82=FACE_BOUND('',#125,.T.);
#83=FACE_BOUND('',#126,.T.);
#84=FACE_BOUND('',#127,.T.);
#85=FACE_BOUND('',#128,.T.);
#86=FACE_BOUND('',#130,.T.);
#87=FACE_BOUND('',#131,.T.);
#88=FACE_BOUND('',#132,.T.);
#89=FACE_BOUND('',#135,.T.);
#90=FACE_BOUND('',#139,.T.);
#91=FACE_BOUND('',#142,.T.);
#92=FACE_BOUND('',#147,.T.);
#93=FACE_BOUND('',#149,.T.);
#94=FACE_BOUND('',#151,.T.);
#95=FACE_OUTER_BOUND('',#117,.T.);
#96=FACE_OUTER_BOUND('',#119,.T.);
#97=FACE_OUTER_BOUND('',#120,.T.);
#98=FACE_OUTER_BOUND('',#121,.T.);
#99=FACE_OUTER_BOUND('',#122,.T.);
#100=FACE_OUTER_BOUND('',#124,.T.);
#101=FACE_OUTER_BOUND('',#129,.T.);
#102=FACE_OUTER_BOUND('',#133,.T.);
#103=FACE_OUTER_BOUND('',#134,.T.);
#104=FACE_OUTER_BOUND('',#136,.T.);
#105=FACE_OUTER_BOUND('',#137,.T.);
#106=FACE_OUTER_BOUND('',#138,.T.);
#107=FACE_OUTER_BOUND('',#140,.T.);
#108=FACE_OUTER_BOUND('',#141,.T.);
#109=FACE_OUTER_BOUND('',#143,.T.);
#110=FACE_OUTER_BOUND('',#144,.T.);
#111=FACE_OUTER_BOUND('',#145,.T.);
#112=FACE_OUTER_BOUND('',#146,.T.);
#113=FACE_OUTER_BOUND('',#148,.T.);
#114=FACE_OUTER_BOUND('',#150,.T.);
#115=FACE_OUTER_BOUND('',#152,.T.);
#116=FACE_OUTER_BOUND('',#153,.T.);
#117=EDGE_LOOP('',(#262));
#118=EDGE_LOOP('',(#263));
#119=EDGE_LOOP('',(#264,#265,#266,#267));
#120=EDGE_LOOP('',(#268,#269,#270,#271,#272,#273,#274,#275));
#121=EDGE_LOOP('',(#276,#277,#278,#279));
#122=EDGE_LOOP('',(#280));
#123=EDGE_LOOP('',(#281));
#124=EDGE_LOOP('',(#282));
#125=EDGE_LOOP('',(#283));
#126=EDGE_LOOP('',(#284));
#127=EDGE_LOOP('',(#285));
#128=EDGE_LOOP('',(#286));
#129=EDGE_LOOP('',(#287,#288,#289,#290,#291,#292,#293,#294,#295));
#130=EDGE_LOOP('',(#296,#297));
#131=EDGE_LOOP('',(#298,#299));
#132=EDGE_LOOP('',(#300,#301));
#133=EDGE_LOOP('',(#302,#303,#304,#305,#306,#307));
#134=EDGE_LOOP('',(#308));
#135=EDGE_LOOP('',(#309));
#136=EDGE_LOOP('',(#310,#311,#312,#313,#314));
#137=EDGE_LOOP('',(#315,#316,#317,#318,#319));
#138=EDGE_LOOP('',(#320));
#139=EDGE_LOOP('',(#321));
#140=EDGE_LOOP('',(#322,#323,#324,#325,#326));
#141=EDGE_LOOP('',(#327));
#142=EDGE_LOOP('',(#328));
#143=EDGE_LOOP('',(#329,#330,#331,#332));
#144=EDGE_LOOP('',(#333,#334,#335,#336));
#145=EDGE_LOOP('',(#337,#338,#339,#340));
#146=EDGE_LOOP('',(#341,#342,#343,#344,#345,#346,#347,#348,#349));
#147=EDGE_LOOP('',(#350));
#148=EDGE_LOOP('',(#351));
#149=EDGE_LOOP('',(#352));
#150=EDGE_LOOP('',(#353,#354,#355,#356,#357,#358,#359,#360,#361));
#151=EDGE_LOOP('',(#362));
#152=EDGE_LOOP('',(#363));
#153=EDGE_LOOP('',(#364,#365,#366,#367));
#154=CIRCLE('',#413,9.375);
#155=CIRCLE('',#414,6.25);
#156=CIRCLE('',#416,6.25);
#157=CIRCLE('',#420,9.25);
#158=CIRCLE('',#421,6.375);
#159=CIRCLE('',#423,62.5);
#160=CIRCLE('',#424,6.25);
#161=CIRCLE('',#425,6.25);
#162=CIRCLE('',#426,6.25);
#163=CIRCLE('',#428,18.75);
#164=CIRCLE('',#429,62.5);
#165=CIRCLE('',#431,9.375);
#166=CIRCLE('',#433,6.25);
#167=CIRCLE('',#436,9.375);
#168=CIRCLE('',#438,6.25);
#169=CIRCLE('',#440,9.375);
#170=CIRCLE('',#442,6.25);
#171=CIRCLE('',#447,9.25);
#172=CIRCLE('',#450,6.375);
#173=VERTEX_POINT('',#556);
#174=VERTEX_POINT('',#558);
#175=VERTEX_POINT('',#561);
#176=VERTEX_POINT('',#565);
#177=VERTEX_POINT('',#566);
#178=VERTEX_POINT('',#577);
#179=VERTEX_POINT('',#579);
#180=VERTEX_POINT('',#590);
#181=VERTEX_POINT('',#619);
#182=VERTEX_POINT('',#649);
#183=VERTEX_POINT('',#684);
#184=VERTEX_POINT('',#721);
#185=VERTEX_POINT('',#723);
#186=VERTEX_POINT('',#726);
#187=VERTEX_POINT('',#728);
#188=VERTEX_POINT('',#730);
#189=VERTEX_POINT('',#732);
#190=VERTEX_POINT('',#735);
#191=VERTEX_POINT('',#737);
#192=VERTEX_POINT('',#739);
#193=VERTEX_POINT('',#750);
#194=VERTEX_POINT('',#763);
#195=VERTEX_POINT('',#786);
#196=VERTEX_POINT('',#787);
#197=VERTEX_POINT('',#833);
#198=VERTEX_POINT('',#834);
#199=VERTEX_POINT('',#877);
#200=VERTEX_POINT('',#878);
#201=VERTEX_POINT('',#920);
#202=VERTEX_POINT('',#924);
#203=VERTEX_POINT('',#929);
#204=VERTEX_POINT('',#933);
#205=VERTEX_POINT('',#936);
#206=VERTEX_POINT('',#940);
#207=VERTEX_POINT('',#950);
#208=VERTEX_POINT('',#956);
#209=EDGE_CURVE('',#173,#173,#154,.T.);
#210=EDGE_CURVE('',#174,#174,#155,.T.);
#211=EDGE_CURVE('',#175,#175,#156,.T.);
#212=EDGE_CURVE('',#175,#174,#33,.T.);
#213=EDGE_CURVE('',#176,#177,#16,.T.);
#214=EDGE_CURVE('',#176,#178,#34,.T.);
#215=EDGE_CURVE('',#179,#178,#17,.T.);
#216=EDGE_CURVE('',#180,#179,#18,.T.);
#217=EDGE_CURVE('',#178,#180,#19,.T.);
#218=EDGE_CURVE('',#181,#176,#20,.T.);
#219=EDGE_CURVE('',#177,#181,#21,.T.);
#220=EDGE_CURVE('',#182,#182,#22,.T.);
#221=EDGE_CURVE('',#182,#183,#35,.T.);
#222=EDGE_CURVE('',#183,#183,#23,.T.);
#223=EDGE_CURVE('',#184,#184,#157,.T.);
#224=EDGE_CURVE('',#185,#185,#158,.T.);
#225=EDGE_CURVE('',#186,#186,#159,.T.);
#226=EDGE_CURVE('',#187,#187,#160,.T.);
#227=EDGE_CURVE('',#188,#188,#161,.T.);
#228=EDGE_CURVE('',#189,#189,#162,.T.);
#229=EDGE_CURVE('',#190,#190,#163,.T.);
#230=EDGE_CURVE('',#190,#191,#36,.T.);
#231=EDGE_CURVE('',#191,#192,#24,.T.);
#232=EDGE_CURVE('',#192,#193,#25,.T.);
#233=EDGE_CURVE('',#193,#194,#37,.T.);
#234=EDGE_CURVE('',#194,#194,#164,.T.);
#235=EDGE_CURVE('',#193,#191,#26,.T.);
#236=EDGE_CURVE('',#195,#196,#27,.F.);
#237=EDGE_CURVE('',#196,#195,#28,.F.);
#238=EDGE_CURVE('',#197,#198,#29,.T.);
#239=EDGE_CURVE('',#198,#197,#30,.T.);
#240=EDGE_CURVE('',#199,#200,#31,.T.);
#241=EDGE_CURVE('',#200,#199,#32,.T.);
#242=EDGE_CURVE('',#191,#201,#38,.T.);
#243=EDGE_CURVE('',#201,#201,#165,.T.);
#244=EDGE_CURVE('',#202,#202,#166,.T.);
#245=EDGE_CURVE('',#196,#173,#39,.T.);
#246=EDGE_CURVE('',#198,#203,#40,.T.);
#247=EDGE_CURVE('',#203,#203,#167,.T.);
#248=EDGE_CURVE('',#204,#204,#168,.T.);
#249=EDGE_CURVE('',#200,#205,#41,.T.);
#250=EDGE_CURVE('',#205,#205,#169,.T.);
#251=EDGE_CURVE('',#206,#206,#170,.T.);
#252=EDGE_CURVE('',#204,#187,#42,.T.);
#253=EDGE_CURVE('',#206,#189,#43,.T.);
#254=EDGE_CURVE('',#202,#188,#44,.T.);
#255=EDGE_CURVE('',#184,#177,#45,.T.);
#256=EDGE_CURVE('',#181,#207,#46,.T.);
#257=EDGE_CURVE('',#207,#207,#171,.F.);
#258=EDGE_CURVE('',#185,#179,#47,.T.);
#259=EDGE_CURVE('',#180,#208,#48,.T.);
#260=EDGE_CURVE('',#208,#208,#172,.T.);
#261=EDGE_CURVE('',#194,#186,#49,.T.);
#262=ORIENTED_EDGE('',*,*,#209,.F.);
#263=ORIENTED_EDGE('',*,*,#210,.T.);
#264=ORIENTED_EDGE('',*,*,#211,.T.);
#265=ORIENTED_EDGE('',*,*,#212,.T.);
#266=ORIENTED_EDGE('',*,*,#210,.F.);
#267=ORIENTED_EDGE('',*,*,#212,.F.);
#268=ORIENTED_EDGE('',*,*,#213,.F.);
#269=ORIENTED_EDGE('',*,*,#214,.T.);
#270=ORIENTED_EDGE('',*,*,#215,.F.);
#271=ORIENTED_EDGE('',*,*,#216,.F.);
#272=ORIENTED_EDGE('',*,*,#217,.F.);
#273=ORIENTED_EDGE('',*,*,#214,.F.);
#274=ORIENTED_EDGE('',*,*,#218,.F.);
#275=ORIENTED_EDGE('',*,*,#219,.F.);
#276=ORIENTED_EDGE('',*,*,#220,.F.);
#277=ORIENTED_EDGE('',*,*,#221,.T.);
#278=ORIENTED_EDGE('',*,*,#222,.F.);
#279=ORIENTED_EDGE('',*,*,#221,.F.);
#280=ORIENTED_EDGE('',*,*,#223,.T.);
#281=ORIENTED_EDGE('',*,*,#224,.T.);
#282=ORIENTED_EDGE('',*,*,#225,.F.);
#283=ORIENTED_EDGE('',*,*,#211,.F.);
#284=ORIENTED_EDGE('',*,*,#226,.T.);
#285=ORIENTED_EDGE('',*,*,#227,.T.);
#286=ORIENTED_EDGE('',*,*,#228,.T.);
#287=ORIENTED_EDGE('',*,*,#229,.T.);
#288=ORIENTED_EDGE('',*,*,#230,.T.);
#289=ORIENTED_EDGE('',*,*,#231,.T.);
#290=ORIENTED_EDGE('',*,*,#232,.T.);
#291=ORIENTED_EDGE('',*,*,#233,.T.);
#292=ORIENTED_EDGE('',*,*,#234,.T.);
#293=ORIENTED_EDGE('',*,*,#233,.F.);
#294=ORIENTED_EDGE('',*,*,#235,.T.);
#295=ORIENTED_EDGE('',*,*,#230,.F.);
#296=ORIENTED_EDGE('',*,*,#236,.T.);
#297=ORIENTED_EDGE('',*,*,#237,.T.);
#298=ORIENTED_EDGE('',*,*,#238,.T.);
#299=ORIENTED_EDGE('',*,*,#239,.T.);
#300=ORIENTED_EDGE('',*,*,#240,.T.);
#301=ORIENTED_EDGE('',*,*,#241,.T.);
#302=ORIENTED_EDGE('',*,*,#232,.F.);
#303=ORIENTED_EDGE('',*,*,#231,.F.);
#304=ORIENTED_EDGE('',*,*,#242,.T.);
#305=ORIENTED_EDGE('',*,*,#243,.T.);
#306=ORIENTED_EDGE('',*,*,#242,.F.);
#307=ORIENTED_EDGE('',*,*,#235,.F.);
#308=ORIENTED_EDGE('',*,*,#243,.F.);
#309=ORIENTED_EDGE('',*,*,#244,.F.);
#310=ORIENTED_EDGE('',*,*,#236,.F.);
#311=ORIENTED_EDGE('',*,*,#237,.F.);
#312=ORIENTED_EDGE('',*,*,#245,.T.);
#313=ORIENTED_EDGE('',*,*,#209,.T.);
#314=ORIENTED_EDGE('',*,*,#245,.F.);
#315=ORIENTED_EDGE('',*,*,#238,.F.);
#316=ORIENTED_EDGE('',*,*,#239,.F.);
#317=ORIENTED_EDGE('',*,*,#246,.T.);
#318=ORIENTED_EDGE('',*,*,#247,.T.);
#319=ORIENTED_EDGE('',*,*,#246,.F.);
#320=ORIENTED_EDGE('',*,*,#247,.F.);
#321=ORIENTED_EDGE('',*,*,#248,.F.);
#322=ORIENTED_EDGE('',*,*,#240,.F.);
#323=ORIENTED_EDGE('',*,*,#241,.F.);
#324=ORIENTED_EDGE('',*,*,#249,.T.);
#325=ORIENTED_EDGE('',*,*,#250,.T.);
#326=ORIENTED_EDGE('',*,*,#249,.F.);
#327=ORIENTED_EDGE('',*,*,#250,.F.);
#328=ORIENTED_EDGE('',*,*,#251,.F.);
#329=ORIENTED_EDGE('',*,*,#248,.T.);
#330=ORIENTED_EDGE('',*,*,#252,.T.);
#331=ORIENTED_EDGE('',*,*,#226,.F.);
#332=ORIENTED_EDGE('',*,*,#252,.F.);
#333=ORIENTED_EDGE('',*,*,#251,.T.);
#334=ORIENTED_EDGE('',*,*,#253,.T.);
#335=ORIENTED_EDGE('',*,*,#228,.F.);
#336=ORIENTED_EDGE('',*,*,#253,.F.);
#337=ORIENTED_EDGE('',*,*,#244,.T.);
#338=ORIENTED_EDGE('',*,*,#254,.T.);
#339=ORIENTED_EDGE('',*,*,#227,.F.);
#340=ORIENTED_EDGE('',*,*,#254,.F.);
#341=ORIENTED_EDGE('',*,*,#223,.F.);
#342=ORIENTED_EDGE('',*,*,#255,.T.);
#343=ORIENTED_EDGE('',*,*,#219,.T.);
#344=ORIENTED_EDGE('',*,*,#256,.T.);
#345=ORIENTED_EDGE('',*,*,#257,.T.);
#346=ORIENTED_EDGE('',*,*,#256,.F.);
#347=ORIENTED_EDGE('',*,*,#218,.T.);
#348=ORIENTED_EDGE('',*,*,#213,.T.);
#349=ORIENTED_EDGE('',*,*,#255,.F.);
#350=ORIENTED_EDGE('',*,*,#222,.T.);
#351=ORIENTED_EDGE('',*,*,#229,.F.);
#352=ORIENTED_EDGE('',*,*,#257,.F.);
#353=ORIENTED_EDGE('',*,*,#224,.F.);
#354=ORIENTED_EDGE('',*,*,#258,.T.);
#355=ORIENTED_EDGE('',*,*,#215,.T.);
#356=ORIENTED_EDGE('',*,*,#217,.T.);
#357=ORIENTED_EDGE('',*,*,#259,.T.);
#358=ORIENTED_EDGE('',*,*,#260,.F.);
#359=ORIENTED_EDGE('',*,*,#259,.F.);
#360=ORIENTED_EDGE('',*,*,#216,.T.);
#361=ORIENTED_EDGE('',*,*,#258,.F.);
#362=ORIENTED_EDGE('',*,*,#220,.T.);
#363=ORIENTED_EDGE('',*,*,#260,.T.);
#364=ORIENTED_EDGE('',*,*,#234,.F.);
#365=ORIENTED_EDGE('',*,*,#261,.T.);
#366=ORIENTED_EDGE('',*,*,#225,.T.);
#367=ORIENTED_EDGE('',*,*,#261,.F.);
#368=PLANE('',#412);
#369=PLANE('',#419);
#370=PLANE('',#422);
#371=PLANE('',#432);
#372=PLANE('',#437);
#373=PLANE('',#441);
#374=PLANE('',#448);
#375=PLANE('',#451);
#376=ADVANCED_FACE('',(#95,#80),#368,.F.);
#377=ADVANCED_FACE('',(#96),#67,.F.);
#378=ADVANCED_FACE('',(#97),#68,.F.);
#379=ADVANCED_FACE('',(#98),#69,.F.);
#380=ADVANCED_FACE('',(#99,#81),#369,.T.);
#381=ADVANCED_FACE('',(#100,#82,#83,#84,#85),#370,.F.);
#382=ADVANCED_FACE('',(#101,#86,#87,#88),#15,.T.);
#383=ADVANCED_FACE('',(#102),#70,.F.);
#384=ADVANCED_FACE('',(#103,#89),#371,.T.);
#385=ADVANCED_FACE('',(#104),#71,.F.);
#386=ADVANCED_FACE('',(#105),#72,.F.);
#387=ADVANCED_FACE('',(#106,#90),#372,.T.);
#388=ADVANCED_FACE('',(#107),#73,.F.);
#389=ADVANCED_FACE('',(#108,#91),#373,.T.);
#390=ADVANCED_FACE('',(#109),#74,.F.);
#391=ADVANCED_FACE('',(#110),#75,.F.);
#392=ADVANCED_FACE('',(#111),#76,.F.);
#393=ADVANCED_FACE('',(#112,#92),#77,.T.);
#394=ADVANCED_FACE('',(#113,#93),#374,.T.);
#395=ADVANCED_FACE('',(#114,#94),#78,.F.);
#396=ADVANCED_FACE('',(#115),#375,.T.);
#397=ADVANCED_FACE('',(#116),#79,.T.);
#398=CLOSED_SHELL('',(#376,#377,#378,#379,#380,#381,#382,#383,#384,#385,
#386,#387,#388,#389,#390,#391,#392,#393,#394,#395,#396,#397));
#399=DERIVED_UNIT_ELEMENT(#401,1.);
#400=DERIVED_UNIT_ELEMENT(#967,-3.);
#401=(
MASS_UNIT()
NAMED_UNIT(*)
SI_UNIT(.KILO.,.GRAM.)
);
#402=DERIVED_UNIT((#399,#400));
#403=MEASURE_REPRESENTATION_ITEM('density measure',
POSITIVE_RATIO_MEASURE(7850.),#402);
#404=PROPERTY_DEFINITION_REPRESENTATION(#409,#406);
#405=PROPERTY_DEFINITION_REPRESENTATION(#410,#407);
#406=REPRESENTATION('material name',(#408),#964);
#407=REPRESENTATION('density',(#403),#964);
#408=DESCRIPTIVE_REPRESENTATION_ITEM('Steel','Steel');
#409=PROPERTY_DEFINITION('material property','material name',#974);
#410=PROPERTY_DEFINITION('material property','density of part',#974);
#411=AXIS2_PLACEMENT_3D('',#554,#453,#454);
#412=AXIS2_PLACEMENT_3D('',#555,#455,#456);
#413=AXIS2_PLACEMENT_3D('',#557,#457,#458);
#414=AXIS2_PLACEMENT_3D('',#559,#459,#460);
#415=AXIS2_PLACEMENT_3D('',#560,#461,#462);
#416=AXIS2_PLACEMENT_3D('',#562,#463,#464);
#417=AXIS2_PLACEMENT_3D('',#564,#466,#467);
#418=AXIS2_PLACEMENT_3D('',#648,#469,#470);
#419=AXIS2_PLACEMENT_3D('',#720,#472,#473);
#420=AXIS2_PLACEMENT_3D('',#722,#474,#475);
#421=AXIS2_PLACEMENT_3D('',#724,#476,#477);
#422=AXIS2_PLACEMENT_3D('',#725,#478,#479);
#423=AXIS2_PLACEMENT_3D('',#727,#480,#481);
#424=AXIS2_PLACEMENT_3D('',#729,#482,#483);
#425=AXIS2_PLACEMENT_3D('',#731,#484,#485);
#426=AXIS2_PLACEMENT_3D('',#733,#486,#487);
#427=AXIS2_PLACEMENT_3D('',#734,#488,#489);
#428=AXIS2_PLACEMENT_3D('',#736,#490,#491);
#429=AXIS2_PLACEMENT_3D('',#765,#494,#495);
#430=AXIS2_PLACEMENT_3D('',#919,#496,#497);
#431=AXIS2_PLACEMENT_3D('',#922,#499,#500);
#432=AXIS2_PLACEMENT_3D('',#923,#501,#502);
#433=AXIS2_PLACEMENT_3D('',#925,#503,#504);
#434=AXIS2_PLACEMENT_3D('',#926,#505,#506);
#435=AXIS2_PLACEMENT_3D('',#928,#508,#509);
#436=AXIS2_PLACEMENT_3D('',#931,#511,#512);
#437=AXIS2_PLACEMENT_3D('',#932,#513,#514);
#438=AXIS2_PLACEMENT_3D('',#934,#515,#516);
#439=AXIS2_PLACEMENT_3D('',#935,#517,#518);
#440=AXIS2_PLACEMENT_3D('',#938,#520,#521);
#441=AXIS2_PLACEMENT_3D('',#939,#522,#523);
#442=AXIS2_PLACEMENT_3D('',#941,#524,#525);
#443=AXIS2_PLACEMENT_3D('',#942,#526,#527);
#444=AXIS2_PLACEMENT_3D('',#944,#529,#530);
#445=AXIS2_PLACEMENT_3D('',#946,#532,#533);
#446=AXIS2_PLACEMENT_3D('',#948,#535,#536);
#447=AXIS2_PLACEMENT_3D('',#952,#539,#540);
#448=AXIS2_PLACEMENT_3D('',#953,#541,#542);
#449=AXIS2_PLACEMENT_3D('',#954,#543,#544);
#450=AXIS2_PLACEMENT_3D('',#958,#547,#548);
#451=AXIS2_PLACEMENT_3D('',#959,#549,#550);
#452=AXIS2_PLACEMENT_3D('',#960,#551,#552);
#453=DIRECTION('axis',(0.,0.,1.));
#454=DIRECTION('refdir',(1.,0.,0.));
#455=DIRECTION('center_axis',(-1.83186799063151E-15,-1.,6.60671008122597E-30));
#456=DIRECTION('ref_axis',(1.,-1.83186799063151E-15,-7.63278329429795E-17));
#457=DIRECTION('center_axis',(-1.83186799063151E-15,-1.,6.60671008122597E-30));
#458=DIRECTION('ref_axis',(-1.,0.,0.));
#459=DIRECTION('center_axis',(-1.83186799063151E-15,-1.,6.60671008122597E-30));
#460=DIRECTION('ref_axis',(1.,-1.83186799063151E-15,-7.63278329429795E-17));
#461=DIRECTION('center_axis',(-1.80411241501588E-15,-1.,-4.1633363423443E-16));
#462=DIRECTION('ref_axis',(1.,-1.80411241501588E-15,-7.63278329429797E-17));
#463=DIRECTION('center_axis',(-1.83186799063151E-15,-1.,4.97968446420764E-30));
#464=DIRECTION('ref_axis',(1.,-1.80411241501588E-15,-7.63278329429797E-17));
#465=DIRECTION('',(1.80411241501588E-15,1.,4.1633363423443E-16));
#466=DIRECTION('center_axis',(-1.,-8.32667268468868E-17,1.2490009027033E-16));
#467=DIRECTION('ref_axis',(-1.2490009027033E-16,-4.9960036108132E-16,-1.));
#468=DIRECTION('',(-1.,-8.32667268468868E-17,1.2490009027033E-16));
#469=DIRECTION('center_axis',(-1.,-8.32667268468868E-17,1.2490009027033E-16));
#470=DIRECTION('ref_axis',(-1.2490009027033E-16,-4.9960036108132E-16,-1.));
#471=DIRECTION('',(-1.,-8.32667268468868E-17,1.2490009027033E-16));
#472=DIRECTION('center_axis',(-1.1016319281895E-31,1.,-9.86076131526265E-31));
#473=DIRECTION('ref_axis',(-1.,-1.1170393677446E-31,1.23259516440783E-31));
#474=DIRECTION('center_axis',(-1.1016319281895E-31,1.,-9.86076131526265E-31));
#475=DIRECTION('ref_axis',(-1.,-1.12370204430896E-31,1.33253531287333E-31));
#476=DIRECTION('center_axis',(1.1016319281895E-31,-1.,9.86076131526265E-31));
#477=DIRECTION('ref_axis',(-1.,-1.10737195469042E-31,1.20842663177238E-31));
#478=DIRECTION('center_axis',(0.,1.,0.));
#479=DIRECTION('ref_axis',(1.,0.,0.));
#480=DIRECTION('center_axis',(0.,1.,0.));
#481=DIRECTION('ref_axis',(1.,0.,0.));
#482=DIRECTION('center_axis',(0.,1.,0.));
#483=DIRECTION('ref_axis',(-1.,0.,0.));
#484=DIRECTION('center_axis',(0.,1.,0.));
#485=DIRECTION('ref_axis',(-1.,0.,0.));
#486=DIRECTION('center_axis',(0.,1.,0.));
#487=DIRECTION('ref_axis',(-1.,0.,0.));
#488=DIRECTION('center_axis',(0.,-1.,0.));
#489=DIRECTION('ref_axis',(1.,0.,0.));
#490=DIRECTION('center_axis',(0.,-1.,0.));
#491=DIRECTION('ref_axis',(1.,0.,0.));
#492=DIRECTION('',(-0.707106781186548,-0.707106781186548,8.65956056235493E-17));
#493=DIRECTION('',(-0.707106781186548,-0.707106781186548,8.65956056235493E-17));
#494=DIRECTION('center_axis',(0.,1.,0.));
#495=DIRECTION('ref_axis',(1.,0.,0.));
#496=DIRECTION('center_axis',(0.,-1.,0.));
#497=DIRECTION('ref_axis',(-1.,0.,0.));
#498=DIRECTION('',(0.,-1.,0.));
#499=DIRECTION('center_axis',(0.,-1.,0.));
#500=DIRECTION('ref_axis',(-1.,0.,0.));
#501=DIRECTION('center_axis',(0.,1.,0.));
#502=DIRECTION('ref_axis',(-1.,0.,0.));
#503=DIRECTION('center_axis',(0.,1.,0.));
#504=DIRECTION('ref_axis',(-1.,0.,0.));
#505=DIRECTION('center_axis',(0.,-1.,0.));
#506=DIRECTION('ref_axis',(-1.,0.,0.));
#507=DIRECTION('',(0.,-1.,0.));
#508=DIRECTION('center_axis',(0.,-1.,0.));
#509=DIRECTION('ref_axis',(-1.,0.,0.));
#510=DIRECTION('',(0.,-1.,0.));
#511=DIRECTION('center_axis',(0.,-1.,0.));
#512=DIRECTION('ref_axis',(-1.,0.,0.));
#513=DIRECTION('center_axis',(0.,1.,0.));
#514=DIRECTION('ref_axis',(-1.,0.,0.));
#515=DIRECTION('center_axis',(0.,1.,0.));
#516=DIRECTION('ref_axis',(-1.,0.,0.));
#517=DIRECTION('center_axis',(0.,-1.,0.));
#518=DIRECTION('ref_axis',(-1.,0.,0.));
#519=DIRECTION('',(0.,-1.,0.));
#520=DIRECTION('center_axis',(0.,-1.,0.));
#521=DIRECTION('ref_axis',(-1.,0.,0.));
#522=DIRECTION('center_axis',(0.,1.,0.));
#523=DIRECTION('ref_axis',(-1.,0.,0.));
#524=DIRECTION('center_axis',(0.,1.,0.));
#525=DIRECTION('ref_axis',(-1.,0.,0.));
#526=DIRECTION('center_axis',(0.,-1.,0.));
#527=DIRECTION('ref_axis',(-1.,0.,0.));
#528=DIRECTION('',(0.,-1.,0.));
#529=DIRECTION('center_axis',(0.,-1.,0.));
#530=DIRECTION('ref_axis',(-1.,0.,0.));
#531=DIRECTION('',(0.,-1.,0.));
#532=DIRECTION('center_axis',(0.,-1.,0.));
#533=DIRECTION('ref_axis',(-1.,0.,0.));
#534=DIRECTION('',(0.,-1.,0.));
#535=DIRECTION('center_axis',(0.,1.,0.));
#536=DIRECTION('ref_axis',(-1.,0.,0.));
#537=DIRECTION('',(0.,-1.,0.));
#538=DIRECTION('',(0.,-1.,0.));
#539=DIRECTION('center_axis',(0.,-1.,0.));
#540=DIRECTION('ref_axis',(-1.,0.,0.));
#541=DIRECTION('center_axis',(0.,1.,0.));
#542=DIRECTION('ref_axis',(1.,0.,0.));
#543=DIRECTION('center_axis',(0.,1.,0.));
#544=DIRECTION('ref_axis',(-1.,0.,0.));
#545=DIRECTION('',(0.,-1.,0.));
#546=DIRECTION('',(0.,-1.,0.));
#547=DIRECTION('center_axis',(0.,1.,0.));
#548=DIRECTION('ref_axis',(-1.,0.,0.));
#549=DIRECTION('center_axis',(0.,1.,0.));
#550=DIRECTION('ref_axis',(1.,0.,0.));
#551=DIRECTION('center_axis',(0.,1.,0.));
#552=DIRECTION('ref_axis',(1.,0.,0.));
#553=DIRECTION('',(0.,-1.,0.));
#554=CARTESIAN_POINT('',(0.,0.,0.));
#555=CARTESIAN_POINT('Origin',(-1.346145417358E-13,6.42208747482035,-1.46320937220316));
#556=CARTESIAN_POINT('',(9.37499999999986,6.42208747482041,-42.0882095119016));
#557=CARTESIAN_POINT('Origin',(0.,6.42208747482035,-42.0882095119016));
#558=CARTESIAN_POINT('',(-6.25000000000014,6.42208747482044,-42.0882095119016));
#559=CARTESIAN_POINT('Origin',(-1.41553435639707E-13,6.42208747482043,-42.0882095119016));
#560=CARTESIAN_POINT('Origin',(-1.8249290967276E-13,-6.07791252517939,-42.0882095119015));
#561=CARTESIAN_POINT('',(-6.25000000000018,-6.07791252517937,-42.0882095119015));
#562=CARTESIAN_POINT('Origin',(-1.8249290967276E-13,-6.07791252517944,-42.0882095119015));
#563=CARTESIAN_POINT('',(-6.25000000000018,-6.07791252517937,-42.0882095119015));
#564=CARTESIAN_POINT('Origin',(25.,125.208430964583,-1.46320937220339));
#565=CARTESIAN_POINT('',(8.706140074683,125.208430964583,1.66179062779662));
#566=CARTESIAN_POINT('',(9.25,128.333430964583,-1.46320937220328));
#567=CARTESIAN_POINT('Ctrl Pts',(8.706140074683,125.208430964583,1.66179062779662));
#568=CARTESIAN_POINT('Ctrl Pts',(8.706140074683,125.604300393739,1.66179062779662));
#569=CARTESIAN_POINT('Ctrl Pts',(8.73597822432899,126.0241977794,1.58203511717874));
#570=CARTESIAN_POINT('Ctrl Pts',(8.84098028038916,126.793074588955,1.26220725508382));
#571=CARTESIAN_POINT('Ctrl Pts',(8.91434246492326,127.142359224742,1.02227975005353));
#572=CARTESIAN_POINT('Ctrl Pts',(9.04999869810511,127.693784709331,0.470854265465128));
#573=CARTESIAN_POINT('Ctrl Pts',(9.1214882394793,127.933816344503,0.1215158690845));
#574=CARTESIAN_POINT('Ctrl Pts',(9.22212661868676,128.253721980436,-0.647560906071598));
#575=CARTESIAN_POINT('Ctrl Pts',(9.25000000000001,128.333430964583,-1.06753427089466));
#576=CARTESIAN_POINT('Ctrl Pts',(9.25,128.333430964583,-1.46320937220339));
#577=CARTESIAN_POINT('',(5.55652769272334,125.208430964583,1.66179062779662));
#578=CARTESIAN_POINT('',(25.,125.208430964583,1.66179062779661));
#579=CARTESIAN_POINT('',(6.375,128.333430964583,-1.46320937220328));
#580=CARTESIAN_POINT('Ctrl Pts',(6.375,128.333430964583,-1.46320937220339));
#581=CARTESIAN_POINT('Ctrl Pts',(6.37500000000001,128.333430964583,-1.06365853453709));
#582=CARTESIAN_POINT('Ctrl Pts',(6.33396878647588,128.252190943532,-0.64195530310255));
#583=CARTESIAN_POINT('Ctrl Pts',(6.18605881417982,127.931046894399,0.126222950332333));
#584=CARTESIAN_POINT('Ctrl Pts',(6.08079375692379,127.69148726431,0.473151710486166));
#585=CARTESIAN_POINT('Ctrl Pts',(5.87852131572006,127.144109484806,1.02052948998927));
#586=CARTESIAN_POINT('Ctrl Pts',(5.7670909818841,126.797414082355,1.25958635004266));
#587=CARTESIAN_POINT('Ctrl Pts',(5.60444920528765,126.030241539436,1.58032595498091));
#588=CARTESIAN_POINT('Ctrl Pts',(5.55652769272334,125.608979500406,1.66179062779662));
#589=CARTESIAN_POINT('Ctrl Pts',(5.55652769272334,125.208430964583,1.66179062779662));
#590=CARTESIAN_POINT('',(6.375,122.083430964583,-1.46320937220327));
#591=CARTESIAN_POINT('Ctrl Pts',(6.375,122.083430964583,-1.46320937220338));
#592=CARTESIAN_POINT('Ctrl Pts',(6.37499999999999,122.083430964583,-1.86276020986968));
#593=CARTESIAN_POINT('Ctrl Pts',(6.33396878647582,122.164670985634,-2.28446344130423));
#594=CARTESIAN_POINT('Ctrl Pts',(6.1860588141797,122.485815034768,-3.05264169473911));
#595=CARTESIAN_POINT('Ctrl Pts',(6.08079375692365,122.725374664857,-3.39957045489294));
#596=CARTESIAN_POINT('Ctrl Pts',(5.87852131571987,123.27275244436,-3.94694823439605));
#597=CARTESIAN_POINT('Ctrl Pts',(5.76709098188389,123.619447846811,-4.18600509444943));
#598=CARTESIAN_POINT('Ctrl Pts',(5.60444920528741,124.38662038973,-4.50674469938768));
#599=CARTESIAN_POINT('Ctrl Pts',(5.55652769272309,124.80788242876,-4.58820937220339));
#600=CARTESIAN_POINT('Ctrl Pts',(5.55652769272309,125.608979500406,-4.58820937220338));
#601=CARTESIAN_POINT('Ctrl Pts',(5.60444920528741,126.030241539436,-4.50674469938768));
#602=CARTESIAN_POINT('Ctrl Pts',(5.76709098188389,126.797414082355,-4.18600509444943));
#603=CARTESIAN_POINT('Ctrl Pts',(5.87852131571987,127.144109484806,-3.94694823439605));
#604=CARTESIAN_POINT('Ctrl Pts',(6.08079375692365,127.69148726431,-3.39957045489294));
#605=CARTESIAN_POINT('Ctrl Pts',(6.1860588141797,127.931046894399,-3.05264169473911));
#606=CARTESIAN_POINT('Ctrl Pts',(6.33396878647582,128.252190943532,-2.28446344130423));
#607=CARTESIAN_POINT('Ctrl Pts',(6.37499999999998,128.333430964583,-1.86276020986969));
#608=CARTESIAN_POINT('Ctrl Pts',(6.375,128.333430964583,-1.46320937220339));
#609=CARTESIAN_POINT('Ctrl Pts',(5.55652769272334,125.208430964583,1.66179062779661));
#610=CARTESIAN_POINT('Ctrl Pts',(5.55652769272334,124.80788242876,1.66179062779662));
#611=CARTESIAN_POINT('Ctrl Pts',(5.60444920528765,124.38662038973,1.58032595498091));
#612=CARTESIAN_POINT('Ctrl Pts',(5.7670909818841,123.619447846811,1.25958635004266));
#613=CARTESIAN_POINT('Ctrl Pts',(5.87852131572006,123.27275244436,1.02052948998928));
#614=CARTESIAN_POINT('Ctrl Pts',(6.08079375692379,122.725374664857,0.473151710486168));
#615=CARTESIAN_POINT('Ctrl Pts',(6.18605881417982,122.485815034768,0.126222950332336));
#616=CARTESIAN_POINT('Ctrl Pts',(6.33396878647588,122.164670985634,-0.641955303102546));
#617=CARTESIAN_POINT('Ctrl Pts',(6.37500000000001,122.083430964583,-1.06365853453708));
#618=CARTESIAN_POINT('Ctrl Pts',(6.375,122.083430964583,-1.46320937220338));
#619=CARTESIAN_POINT('',(9.25,122.083430964583,-1.46320937220328));
#620=CARTESIAN_POINT('Ctrl Pts',(9.25,122.083430964583,-1.46320937220338));
#621=CARTESIAN_POINT('Ctrl Pts',(9.25000000000001,122.083430964583,-1.06753427089465));
#622=CARTESIAN_POINT('Ctrl Pts',(9.22212661868676,122.163139948731,-0.647560906071597));
#623=CARTESIAN_POINT('Ctrl Pts',(9.1214882394793,122.483045584663,0.121515869084501));
#624=CARTESIAN_POINT('Ctrl Pts',(9.04999869810511,122.723077219836,0.470854265465128));
#625=CARTESIAN_POINT('Ctrl Pts',(8.91434246492326,123.274502704424,1.02227975005353));
#626=CARTESIAN_POINT('Ctrl Pts',(8.84098028038915,123.623787340212,1.26220725508385));
#627=CARTESIAN_POINT('Ctrl Pts',(8.73597822432899,124.392664149766,1.58203511717875));
#628=CARTESIAN_POINT('Ctrl Pts',(8.706140074683,124.812561535427,1.66179062779661));
#629=CARTESIAN_POINT('Ctrl Pts',(8.706140074683,125.208430964583,1.66179062779662));
#630=CARTESIAN_POINT('Ctrl Pts',(9.25,128.333430964583,-1.46320937220338));
#631=CARTESIAN_POINT('Ctrl Pts',(9.24999999999999,128.333430964583,-1.85888447351212));
#632=CARTESIAN_POINT('Ctrl Pts',(9.22212661868672,128.253721980436,-2.27885783833517));
#633=CARTESIAN_POINT('Ctrl Pts',(9.12148823947922,127.933816344503,-3.04793461349127));
#634=CARTESIAN_POINT('Ctrl Pts',(9.04999869810502,127.693784709331,-3.3972730098719));
#635=CARTESIAN_POINT('Ctrl Pts',(8.91434246492314,127.142359224742,-3.9486984944603));
#636=CARTESIAN_POINT('Ctrl Pts',(8.84098028038902,126.793074588955,-4.18862599949059));
#637=CARTESIAN_POINT('Ctrl Pts',(8.73597822432884,126.0241977794,-4.50845386158551));
#638=CARTESIAN_POINT('Ctrl Pts',(8.70614007468285,125.604300393739,-4.58820937220339));
#639=CARTESIAN_POINT('Ctrl Pts',(8.70614007468285,124.812561535427,-4.58820937220339));
#640=CARTESIAN_POINT('Ctrl Pts',(8.73597822432884,124.392664149766,-4.50845386158551));
#641=CARTESIAN_POINT('Ctrl Pts',(8.84098028038902,123.623787340212,-4.18862599949059));
#642=CARTESIAN_POINT('Ctrl Pts',(8.91434246492314,123.274502704424,-3.9486984944603));
#643=CARTESIAN_POINT('Ctrl Pts',(9.04999869810502,122.723077219836,-3.3972730098719));
#644=CARTESIAN_POINT('Ctrl Pts',(9.12148823947922,122.483045584663,-3.04793461349127));
#645=CARTESIAN_POINT('Ctrl Pts',(9.22212661868672,122.163139948731,-2.27885783833517));
#646=CARTESIAN_POINT('Ctrl Pts',(9.24999999999999,122.083430964583,-1.85888447351211));
#647=CARTESIAN_POINT('Ctrl Pts',(9.25,122.083430964583,-1.46320937220338));
#648=CARTESIAN_POINT('Origin',(25.,125.208430964583,-1.46320937220339));
#649=CARTESIAN_POINT('',(-5.55652769272334,125.208430964583,1.66179062779662));
#650=CARTESIAN_POINT('Ctrl Pts',(-5.55652769272334,125.208430964583,1.66179062779662));
#651=CARTESIAN_POINT('Ctrl Pts',(-5.55652769272334,125.608979500406,1.66179062779662));
#652=CARTESIAN_POINT('Ctrl Pts',(-5.60444920528764,126.030241539436,1.58032595498091));
#653=CARTESIAN_POINT('Ctrl Pts',(-5.7670909818841,126.797414082355,1.25958635004266));
#654=CARTESIAN_POINT('Ctrl Pts',(-5.87852131572006,127.144109484806,1.02052948998928));
#655=CARTESIAN_POINT('Ctrl Pts',(-6.08079375692379,127.69148726431,0.473151710486168));
#656=CARTESIAN_POINT('Ctrl Pts',(-6.18605881417982,127.931046894399,0.126222950332336));
#657=CARTESIAN_POINT('Ctrl Pts',(-6.33396878647588,128.252190943532,-0.641955303102547));
#658=CARTESIAN_POINT('Ctrl Pts',(-6.37500000000001,128.333430964583,-1.06365853453709));
#659=CARTESIAN_POINT('Ctrl Pts',(-6.37499999999999,128.333430964583,-1.86276020986969));
#660=CARTESIAN_POINT('Ctrl Pts',(-6.33396878647582,128.252190943532,-2.28446344130423));
#661=CARTESIAN_POINT('Ctrl Pts',(-6.1860588141797,127.931046894399,-3.05264169473911));
#662=CARTESIAN_POINT('Ctrl Pts',(-6.08079375692365,127.69148726431,-3.39957045489294));
#663=CARTESIAN_POINT('Ctrl Pts',(-5.87852131571987,127.144109484806,-3.94694823439605));
#664=CARTESIAN_POINT('Ctrl Pts',(-5.76709098188389,126.797414082355,-4.18600509444943));
#665=CARTESIAN_POINT('Ctrl Pts',(-5.60444920528741,126.030241539436,-4.50674469938768));
#666=CARTESIAN_POINT('Ctrl Pts',(-5.55652769272309,125.608979500406,-4.58820937220338));
#667=CARTESIAN_POINT('Ctrl Pts',(-5.55652769272309,124.80788242876,-4.58820937220338));
#668=CARTESIAN_POINT('Ctrl Pts',(-5.60444920528741,124.38662038973,-4.50674469938768));
#669=CARTESIAN_POINT('Ctrl Pts',(-5.76709098188389,123.619447846811,-4.18600509444943));
#670=CARTESIAN_POINT('Ctrl Pts',(-5.87852131571987,123.27275244436,-3.94694823439604));
#671=CARTESIAN_POINT('Ctrl Pts',(-6.08079375692365,122.725374664857,-3.39957045489294));
#672=CARTESIAN_POINT('Ctrl Pts',(-6.1860588141797,122.485815034768,-3.05264169473911));
#673=CARTESIAN_POINT('Ctrl Pts',(-6.33396878647582,122.164670985634,-2.28446344130422));
#674=CARTESIAN_POINT('Ctrl Pts',(-6.37499999999999,122.083430964583,-1.86276020986968));
#675=CARTESIAN_POINT('Ctrl Pts',(-6.37500000000001,122.083430964583,-1.06365853453708));
#676=CARTESIAN_POINT('Ctrl Pts',(-6.33396878647588,122.164670985634,-0.641955303102545));
#677=CARTESIAN_POINT('Ctrl Pts',(-6.18605881417982,122.485815034768,0.126222950332337));
#678=CARTESIAN_POINT('Ctrl Pts',(-6.08079375692379,122.725374664857,0.473151710486169));
#679=CARTESIAN_POINT('Ctrl Pts',(-5.87852131572006,123.27275244436,1.02052948998928));
#680=CARTESIAN_POINT('Ctrl Pts',(-5.76709098188409,123.619447846811,1.25958635004268));
#681=CARTESIAN_POINT('Ctrl Pts',(-5.60444920528764,124.38662038973,1.58032595498091));
#682=CARTESIAN_POINT('Ctrl Pts',(-5.55652769272334,124.80788242876,1.66179062779662));
#683=CARTESIAN_POINT('Ctrl Pts',(-5.55652769272334,125.208430964583,1.66179062779662));
#684=CARTESIAN_POINT('',(-8.706140074683,125.208430964583,1.66179062779662));
#685=CARTESIAN_POINT('',(25.,125.208430964583,1.66179062779661));
#686=CARTESIAN_POINT('Ctrl Pts',(-8.706140074683,125.208430964583,1.66179062779662));
#687=CARTESIAN_POINT('Ctrl Pts',(-8.706140074683,124.812561535427,1.66179062779662));
#688=CARTESIAN_POINT('Ctrl Pts',(-8.73597822432899,124.392664149766,1.58203511717874));
#689=CARTESIAN_POINT('Ctrl Pts',(-8.84098028038915,123.623787340212,1.26220725508382));
#690=CARTESIAN_POINT('Ctrl Pts',(-8.91434246492326,123.274502704424,1.02227975005353));
#691=CARTESIAN_POINT('Ctrl Pts',(-9.04999869810511,122.723077219836,0.470854265465131));
#692=CARTESIAN_POINT('Ctrl Pts',(-9.1214882394793,122.483045584663,0.121515869084503));
#693=CARTESIAN_POINT('Ctrl Pts',(-9.22212661868676,122.163139948731,-0.647560906071595));
#694=CARTESIAN_POINT('Ctrl Pts',(-9.25000000000001,122.083430964583,-1.06753427089465));
#695=CARTESIAN_POINT('Ctrl Pts',(-9.24999999999999,122.083430964583,-1.85888447351211));
#696=CARTESIAN_POINT('Ctrl Pts',(-9.22212661868672,122.163139948731,-2.27885783833517));
#697=CARTESIAN_POINT('Ctrl Pts',(-9.12148823947922,122.483045584663,-3.04793461349127));
#698=CARTESIAN_POINT('Ctrl Pts',(-9.04999869810502,122.723077219836,-3.3972730098719));
#699=CARTESIAN_POINT('Ctrl Pts',(-8.91434246492314,123.274502704424,-3.9486984944603));
#700=CARTESIAN_POINT('Ctrl Pts',(-8.84098028038902,123.623787340212,-4.18862599949059));
#701=CARTESIAN_POINT('Ctrl Pts',(-8.73597822432884,124.392664149766,-4.50845386158551));
#702=CARTESIAN_POINT('Ctrl Pts',(-8.70614007468285,124.812561535427,-4.58820937220338));
#703=CARTESIAN_POINT('Ctrl Pts',(-8.70614007468285,125.604300393739,-4.58820937220338));
#704=CARTESIAN_POINT('Ctrl Pts',(-8.73597822432884,126.0241977794,-4.50845386158551));
#705=CARTESIAN_POINT('Ctrl Pts',(-8.84098028038902,126.793074588955,-4.18862599949059));
#706=CARTESIAN_POINT('Ctrl Pts',(-8.91434246492314,127.142359224742,-3.9486984944603));
#707=CARTESIAN_POINT('Ctrl Pts',(-9.04999869810501,127.693784709331,-3.3972730098719));
#708=CARTESIAN_POINT('Ctrl Pts',(-9.12148823947922,127.933816344503,-3.04793461349127));
#709=CARTESIAN_POINT('Ctrl Pts',(-9.22212661868672,128.253721980436,-2.27885783833517));
#710=CARTESIAN_POINT('Ctrl Pts',(-9.24999999999999,128.333430964583,-1.85888447351211));
#711=CARTESIAN_POINT('Ctrl Pts',(-9.25000000000001,128.333430964583,-1.06753427089465));
#712=CARTESIAN_POINT('Ctrl Pts',(-9.22212661868676,128.253721980436,-0.647560906071596));
#713=CARTESIAN_POINT('Ctrl Pts',(-9.1214882394793,127.933816344503,0.121515869084502));
#714=CARTESIAN_POINT('Ctrl Pts',(-9.04999869810511,127.693784709331,0.47085426546513));
#715=CARTESIAN_POINT('Ctrl Pts',(-8.91434246492326,127.142359224742,1.02227975005353));
#716=CARTESIAN_POINT('Ctrl Pts',(-8.84098028038916,126.793074588955,1.26220725508381));
#717=CARTESIAN_POINT('Ctrl Pts',(-8.73597822432899,126.0241977794,1.58203511717874));
#718=CARTESIAN_POINT('Ctrl Pts',(-8.706140074683,125.604300393739,1.66179062779662));
#719=CARTESIAN_POINT('Ctrl Pts',(-8.706140074683,125.208430964583,1.66179062779662));
#720=CARTESIAN_POINT('Origin',(4.44089209850063E-14,137.547087474821,-1.46320937220339));
#721=CARTESIAN_POINT('',(9.25000000000004,137.547087474821,-1.46320937220339));
#722=CARTESIAN_POINT('Origin',(4.44089209850063E-14,137.547087474821,-1.46320937220339));
#723=CARTESIAN_POINT('',(6.37500000000004,137.547087474821,-1.46320937220339));
#724=CARTESIAN_POINT('Origin',(4.44089209850063E-14,137.547087474821,-1.46320937220339));
#725=CARTESIAN_POINT('Origin',(0.,-6.07791252517934,-1.46320937220316));
#726=CARTESIAN_POINT('',(-62.5,-6.07791252517934,-1.46320937220316));
#727=CARTESIAN_POINT('Origin',(0.,-6.07791252517934,-1.46320937220316));
#728=CARTESIAN_POINT('',(6.25,-6.07791252517934,39.1617906277968));
#729=CARTESIAN_POINT('Origin',(0.,-6.07791252517934,39.1617906277968));
#730=CARTESIAN_POINT('',(-34.375,-6.07791252517934,-1.46320937220317));
#731=CARTESIAN_POINT('Origin',(-40.625,-6.07791252517934,-1.46320937220316));
#732=CARTESIAN_POINT('',(46.875,-6.07791252517934,-1.46320937220317));
#733=CARTESIAN_POINT('Origin',(40.625,-6.07791252517934,-1.46320937220316));
#734=CARTESIAN_POINT('Origin',(0.,22.0470874748207,-1.46320937220316));
#735=CARTESIAN_POINT('',(-18.75,43.9220874748207,-1.46320937220317));
#736=CARTESIAN_POINT('Origin',(0.,43.9220874748207,-1.46320937220316));
#737=CARTESIAN_POINT('',(-31.25,31.4220874748207,-1.46320937220316));
#738=CARTESIAN_POINT('',(-40.625,22.0470874748207,-1.46320937220316));
#739=CARTESIAN_POINT('',(-38.4615384615385,23.1436167227159,7.65874541674408));
#740=CARTESIAN_POINT('Ctrl Pts',(-31.25,31.4220874748207,-1.46320937220316));
#741=CARTESIAN_POINT('Ctrl Pts',(-31.25,31.4220874748207,-0.486727878210483));
#742=CARTESIAN_POINT('Ctrl Pts',(-31.4124487291352,31.2093385223254,0.521730973146121));
#743=CARTESIAN_POINT('Ctrl Pts',(-32.0054644468929,30.4527283348186,2.34660476407736));
#744=CARTESIAN_POINT('Ctrl Pts',(-32.4333429702464,29.9151671626098,3.16649733632426));
#745=CARTESIAN_POINT('Ctrl Pts',(-33.5737425655385,28.5243623086525,4.83343553343936));
#746=CARTESIAN_POINT('Ctrl Pts',(-34.4491582432427,27.4915577753796,5.68553028324042));
#747=CARTESIAN_POINT('Ctrl Pts',(-36.3848827597905,25.3230944749297,6.97876289238842));
#748=CARTESIAN_POINT('Ctrl Pts',(-37.446178543668,24.1871429679424,7.41793166784567));
#749=CARTESIAN_POINT('Ctrl Pts',(-38.4615384615385,23.1436167227159,7.65874541674408));
#750=CARTESIAN_POINT('',(-50.,12.6720874748207,-1.46320937220316));
#751=CARTESIAN_POINT('Ctrl Pts',(-38.4615384615385,23.1436167227159,7.65874541674408));
#752=CARTESIAN_POINT('Ctrl Pts',(-39.7019029854233,21.8688441898033,7.95292369357007));
#753=CARTESIAN_POINT('Ctrl Pts',(-41.1077325683703,20.4915877145852,8.00651775402791));
#754=CARTESIAN_POINT('Ctrl Pts',(-43.8915629792222,17.8906097593577,7.43838035411905));
#755=CARTESIAN_POINT('Ctrl Pts',(-45.2684670035906,16.6657177341567,6.81663461998405));
#756=CARTESIAN_POINT('Ctrl Pts',(-47.4014146361274,14.8227798068456,5.13039145781399));
#757=CARTESIAN_POINT('Ctrl Pts',(-48.3303828977791,14.0446029014089,4.06610206771806));
#758=CARTESIAN_POINT('Ctrl Pts',(-49.3056600282016,13.2387279624018,2.1493605586737));
#759=CARTESIAN_POINT('Ctrl Pts',(-49.5637620023099,13.0275940329856,1.45820777873432));
#760=CARTESIAN_POINT('Ctrl Pts',(-49.9109621928938,12.7442821497768,0.0224051319257967));
#761=CARTESIAN_POINT('Ctrl Pts',(-50.,12.6720874748207,-0.722256042782982));
#762=CARTESIAN_POINT('Ctrl Pts',(-50.,12.6720874748207,-1.46320937220316));
#763=CARTESIAN_POINT('',(-62.5,0.172087474820651,-1.46320937220316));
#764=CARTESIAN_POINT('',(-40.625,22.0470874748207,-1.46320937220316));
#765=CARTESIAN_POINT('Origin',(0.,0.172087474820651,-1.46320937220316));
#766=CARTESIAN_POINT('Ctrl Pts',(-50.,12.6720874748207,-1.46320937220316));
#767=CARTESIAN_POINT('Ctrl Pts',(-50.,12.6720874748207,-2.20416270162335));
#768=CARTESIAN_POINT('Ctrl Pts',(-49.9109621928938,12.7442821497768,-2.94882387633213));
#769=CARTESIAN_POINT('Ctrl Pts',(-49.5637620023099,13.0275940329856,-4.38462652314066));
#770=CARTESIAN_POINT('Ctrl Pts',(-49.3056600282016,13.2387279624018,-5.07577930308003));
#771=CARTESIAN_POINT('Ctrl Pts',(-48.3303828977791,14.0446029014089,-6.9925208121244));
#772=CARTESIAN_POINT('Ctrl Pts',(-47.4014146361274,14.8227798068456,-8.05681020222032));
#773=CARTESIAN_POINT('Ctrl Pts',(-45.2684670035906,16.6657177341567,-9.74305336439038));
#774=CARTESIAN_POINT('Ctrl Pts',(-43.8915629792222,17.8906097593577,-10.3647990985254));
#775=CARTESIAN_POINT('Ctrl Pts',(-41.1077325683703,20.4915877145852,-10.9329364984342));
#776=CARTESIAN_POINT('Ctrl Pts',(-39.7019029854233,21.8688441898033,-10.8793424379764));
#777=CARTESIAN_POINT('Ctrl Pts',(-37.446178543668,24.1871429679424,-10.344350412252));
#778=CARTESIAN_POINT('Ctrl Pts',(-36.3848827597905,25.3230944749297,-9.90518163679475));
#779=CARTESIAN_POINT('Ctrl Pts',(-34.4491582432427,27.4915577753796,-8.61194902764675));
#780=CARTESIAN_POINT('Ctrl Pts',(-33.5737425655385,28.5243623086525,-7.75985427784569));
#781=CARTESIAN_POINT('Ctrl Pts',(-32.4333429702464,29.9151671626098,-6.09291608073059));
#782=CARTESIAN_POINT('Ctrl Pts',(-32.0054644468929,30.4527283348186,-5.27302350848369));
#783=CARTESIAN_POINT('Ctrl Pts',(-31.4124487291352,31.2093385223254,-3.44814971755245));
#784=CARTESIAN_POINT('Ctrl Pts',(-31.25,31.4220874748207,-2.43969086619585));
#785=CARTESIAN_POINT('Ctrl Pts',(-31.25,31.4220874748207,-1.46320937220317));
#786=CARTESIAN_POINT('',(9.10706337520706,23.207235880674,-39.8628956733695));
#787=CARTESIAN_POINT('',(9.375,20.979387135101,-42.0882095135456));
#788=CARTESIAN_POINT('Ctrl Pts',(9.375,20.979387135101,-42.0882095151897));
#789=CARTESIAN_POINT('Ctrl Pts',(9.37499999978372,20.3785270113617,-42.7048613551652));
#790=CARTESIAN_POINT('Ctrl Pts',(9.31369244648105,19.7772484703744,-43.3355002449687));
#791=CARTESIAN_POINT('Ctrl Pts',(8.9015897244116,17.8906096179759,-45.3547724960561));
#792=CARTESIAN_POINT('Ctrl Pts',(8.27984398984146,16.6657175932205,-46.7316765194405));
#793=CARTESIAN_POINT('Ctrl Pts',(6.59360082762896,14.8227796665801,-48.8646241502432));
#794=CARTESIAN_POINT('Ctrl Pts',(5.5293114377611,14.0446027613692,-49.7935924111126));
#795=CARTESIAN_POINT('Ctrl Pts',(3.61256992936374,13.2387278225688,-50.7688695407066));
#796=CARTESIAN_POINT('Ctrl Pts',(2.92141714968818,13.0275938932021,-51.0269715145931));
#797=CARTESIAN_POINT('Ctrl Pts',(1.48561450346838,12.7442820100605,-51.3741717048755));
#798=CARTESIAN_POINT('Ctrl Pts',(0.740953329084371,12.6720873351223,-51.4632095119016));
#799=CARTESIAN_POINT('Ctrl Pts',(-0.740953329084366,12.6720873351223,-51.4632095119016));
#800=CARTESIAN_POINT('Ctrl Pts',(-1.48561450346837,12.7442820100605,-51.3741717048755));
#801=CARTESIAN_POINT('Ctrl Pts',(-2.92141714968818,13.0275938932021,-51.0269715145931));
#802=CARTESIAN_POINT('Ctrl Pts',(-3.61256992936373,13.2387278225687,-50.7688695407066));
#803=CARTESIAN_POINT('Ctrl Pts',(-5.5293114377611,14.0446027613692,-49.7935924111126));
#804=CARTESIAN_POINT('Ctrl Pts',(-6.59360082762897,14.8227796665801,-48.8646241502432));
#805=CARTESIAN_POINT('Ctrl Pts',(-8.27984398984146,16.6657175932205,-46.7316765194405));
#806=CARTESIAN_POINT('Ctrl Pts',(-8.9015897244116,17.8906096179759,-45.3547724960561));
#807=CARTESIAN_POINT('Ctrl Pts',(-9.46972712580398,20.4915875721738,-42.5709420867942));
#808=CARTESIAN_POINT('Ctrl Pts',(-9.41613306639406,21.8688440468018,-41.1651125044477));
#809=CARTESIAN_POINT('Ctrl Pts',(-9.12195479071169,23.1436165791423,-39.9247479808796));
#810=CARTESIAN_POINT('Ctrl Pts',(-8.88114104251372,24.1871428249219,-38.9093880622745));
#811=CARTESIAN_POINT('Ctrl Pts',(-8.44197226759877,25.3230943324954,-37.8480922775088));
#812=CARTESIAN_POINT('Ctrl Pts',(-7.14873965897613,27.4915576339827,-35.9123677591163));
#813=CARTESIAN_POINT('Ctrl Pts',(-6.29664490915763,28.5243621677057,-35.0369520804561));
#814=CARTESIAN_POINT('Ctrl Pts',(-4.62970671144678,29.9151670223108,-33.8965524837407));
#815=CARTESIAN_POINT('Ctrl Pts',(-3.80981413874311,30.4527281947666,-33.4686739598091));
#816=CARTESIAN_POINT('Ctrl Pts',(-1.98494034667654,31.2093383825685,-32.8756582412537));
#817=CARTESIAN_POINT('Ctrl Pts',(-0.976481494644668,31.4220873351223,-32.7132095119016));
#818=CARTESIAN_POINT('Ctrl Pts',(0.97648149464467,31.4220873351223,-32.7132095119016));
#819=CARTESIAN_POINT('Ctrl Pts',(1.98494034667654,31.2093383825685,-32.8756582412537));
#820=CARTESIAN_POINT('Ctrl Pts',(3.80981413874311,30.4527281947666,-33.4686739598091));
#821=CARTESIAN_POINT('Ctrl Pts',(4.62970671144678,29.9151670223108,-33.8965524837407));
#822=CARTESIAN_POINT('Ctrl Pts',(6.29664490915763,28.5243621677057,-35.0369520804561));
#823=CARTESIAN_POINT('Ctrl Pts',(7.14873965897613,27.4915576339827,-35.9123677591163));
#824=CARTESIAN_POINT('Ctrl Pts',(8.42885488410393,25.3450892656037,-37.8284580363995));
#825=CARTESIAN_POINT('Ctrl Pts',(8.86353433744128,24.2331730026357,-38.8662567533962));
#826=CARTESIAN_POINT('Ctrl Pts',(9.10706337520706,23.207235880674,-39.8628956733695));
#827=CARTESIAN_POINT('Ctrl Pts',(9.10706337520706,23.207235880674,-39.8628956733695));
#828=CARTESIAN_POINT('Ctrl Pts',(9.11210594698665,23.1859925758661,-39.883532322446));
#829=CARTESIAN_POINT('Ctrl Pts',(9.11706959640886,23.1647857545274,-39.9041501930588));
#830=CARTESIAN_POINT('Ctrl Pts',(9.28354250803985,22.4434031349791,-40.6060616215734));
#831=CARTESIAN_POINT('Ctrl Pts',(9.37500000026358,21.7116535727245,-41.3366977601698));
#832=CARTESIAN_POINT('Ctrl Pts',(9.375,20.979387135101,-42.0882095151897));
#833=CARTESIAN_POINT('',(9.12195478894725,23.1436167227159,36.9983290893353));
#834=CARTESIAN_POINT('',(9.375,20.9793872712219,39.1617906294409));
#835=CARTESIAN_POINT('Ctrl Pts',(9.12195478894725,23.1436167227159,36.9983290893353));
#836=CARTESIAN_POINT('Ctrl Pts',(9.28354250738219,22.4434032761645,37.6796427322211));
#837=CARTESIAN_POINT('Ctrl Pts',(9.37500000026358,21.7116537113283,38.4102788733863));
#838=CARTESIAN_POINT('Ctrl Pts',(9.375,20.9793872712219,39.161790631085));
#839=CARTESIAN_POINT('Ctrl Pts',(9.375,20.9793872712219,39.161790631085));
#840=CARTESIAN_POINT('Ctrl Pts',(9.37499999978372,20.3785271493939,39.7784424692062));
#841=CARTESIAN_POINT('Ctrl Pts',(9.31369244685341,19.7772486103872,40.4090813570429));
#842=CARTESIAN_POINT('Ctrl Pts',(8.90158972632221,17.8906097593577,42.4283536070191));
#843=CARTESIAN_POINT('Ctrl Pts',(8.27984399218722,16.6657177341567,43.8052576313874));
#844=CARTESIAN_POINT('Ctrl Pts',(6.59360083001716,14.8227798068456,45.9382052639242));
#845=CARTESIAN_POINT('Ctrl Pts',(5.52931143992124,14.0446029014089,46.8671735255759));
#846=CARTESIAN_POINT('Ctrl Pts',(3.61256993087688,13.2387279624018,47.8424506559984));
#847=CARTESIAN_POINT('Ctrl Pts',(2.9214171509375,13.0275940329856,48.1005526301067));
#848=CARTESIAN_POINT('Ctrl Pts',(1.48561450412897,12.7442821497768,48.4477528206907));
#849=CARTESIAN_POINT('Ctrl Pts',(0.740953329420184,12.6720874748207,48.5367906277968));
#850=CARTESIAN_POINT('Ctrl Pts',(-0.740953329420181,12.6720874748207,48.5367906277968));
#851=CARTESIAN_POINT('Ctrl Pts',(-1.48561450412896,12.7442821497768,48.4477528206907));
#852=CARTESIAN_POINT('Ctrl Pts',(-2.92141715093749,13.0275940329856,48.1005526301067));
#853=CARTESIAN_POINT('Ctrl Pts',(-3.61256993087687,13.2387279624018,47.8424506559984));
#854=CARTESIAN_POINT('Ctrl Pts',(-5.52931143992123,14.0446029014089,46.8671735255759));
#855=CARTESIAN_POINT('Ctrl Pts',(-6.59360083001716,14.8227798068456,45.9382052639242));
#856=CARTESIAN_POINT('Ctrl Pts',(-8.27984399218722,16.6657177341567,43.8052576313874));
#857=CARTESIAN_POINT('Ctrl Pts',(-8.90158972632221,17.8906097593577,42.4283536070191));
#858=CARTESIAN_POINT('Ctrl Pts',(-9.46972712623108,20.4915877145852,39.6445231961671));
#859=CARTESIAN_POINT('Ctrl Pts',(-9.41613306577324,21.8688441898033,38.2386936132201));
#860=CARTESIAN_POINT('Ctrl Pts',(-8.88114104004884,24.1871429679424,35.9829691714648));
#861=CARTESIAN_POINT('Ctrl Pts',(-8.44197226459159,25.3230944749297,34.9216733875873));
#862=CARTESIAN_POINT('Ctrl Pts',(-7.14873965544359,27.4915577753796,32.9859488710396));
#863=CARTESIAN_POINT('Ctrl Pts',(-6.29664490564253,28.5243623086525,32.1105331933353));
#864=CARTESIAN_POINT('Ctrl Pts',(-4.62970670852742,29.9151671626098,30.9701335980432));
#865=CARTESIAN_POINT('Ctrl Pts',(-3.80981413628052,30.4527283348186,30.5422550746898));
#866=CARTESIAN_POINT('Ctrl Pts',(-1.98494034534929,31.2093385223254,29.949239356932));
#867=CARTESIAN_POINT('Ctrl Pts',(-0.976481493992682,31.4220874748207,29.7867906277968));
#868=CARTESIAN_POINT('Ctrl Pts',(0.97648149399268,31.4220874748207,29.7867906277968));
#869=CARTESIAN_POINT('Ctrl Pts',(1.98494034534929,31.2093385223254,29.949239356932));
#870=CARTESIAN_POINT('Ctrl Pts',(3.80981413628052,30.4527283348186,30.5422550746898));
#871=CARTESIAN_POINT('Ctrl Pts',(4.62970670852742,29.9151671626097,30.9701335980432));
#872=CARTESIAN_POINT('Ctrl Pts',(6.29664490564253,28.5243623086525,32.1105331933354));
#873=CARTESIAN_POINT('Ctrl Pts',(7.14873965544359,27.4915577753796,32.9859488710396));
#874=CARTESIAN_POINT('Ctrl Pts',(8.44197226459159,25.3230944749297,34.9216733875874));
#875=CARTESIAN_POINT('Ctrl Pts',(8.88114104004884,24.1871429679424,35.9829691714648));
#876=CARTESIAN_POINT('Ctrl Pts',(9.12195478894725,23.1436167227159,36.9983290893353));
#877=CARTESIAN_POINT('',(38.4615384615385,23.1436167227159,-10.5851641611504));
#878=CARTESIAN_POINT('',(50.,12.6720874748207,-1.46320937220316));
#879=CARTESIAN_POINT('Ctrl Pts',(38.4615384615385,23.1436167227159,-10.5851641611504));
#880=CARTESIAN_POINT('Ctrl Pts',(39.7019029854233,21.8688441898033,-10.8793424379764));
#881=CARTESIAN_POINT('Ctrl Pts',(41.1077325683703,20.4915877145852,-10.9329364984342));
#882=CARTESIAN_POINT('Ctrl Pts',(43.8915629792222,17.8906097593577,-10.3647990985254));
#883=CARTESIAN_POINT('Ctrl Pts',(45.2684670035906,16.6657177341567,-9.74305336439038));
#884=CARTESIAN_POINT('Ctrl Pts',(47.4014146361274,14.8227798068456,-8.05681020222032));
#885=CARTESIAN_POINT('Ctrl Pts',(48.3303828977791,14.0446029014089,-6.9925208121244));
#886=CARTESIAN_POINT('Ctrl Pts',(49.3056600282015,13.2387279624018,-5.07577930308003));
#887=CARTESIAN_POINT('Ctrl Pts',(49.5637620023099,13.0275940329856,-4.38462652314066));
#888=CARTESIAN_POINT('Ctrl Pts',(49.9109621928938,12.7442821497768,-2.94882387633213));
#889=CARTESIAN_POINT('Ctrl Pts',(50.,12.6720874748207,-2.20416270162335));
#890=CARTESIAN_POINT('Ctrl Pts',(50.,12.6720874748207,-1.46320937220317));
#891=CARTESIAN_POINT('Ctrl Pts',(50.,12.6720874748207,-1.46320937220317));
#892=CARTESIAN_POINT('Ctrl Pts',(50.,12.6720874748207,-0.722256042782983));
#893=CARTESIAN_POINT('Ctrl Pts',(49.9109621928938,12.7442821497768,0.0224051319258001));
#894=CARTESIAN_POINT('Ctrl Pts',(49.5637620023099,13.0275940329856,1.45820777873433));
#895=CARTESIAN_POINT('Ctrl Pts',(49.3056600282016,13.2387279624018,2.1493605586737));
#896=CARTESIAN_POINT('Ctrl Pts',(48.3303828977791,14.0446029014089,4.06610206771807));
#897=CARTESIAN_POINT('Ctrl Pts',(47.4014146361274,14.8227798068456,5.13039145781399));
#898=CARTESIAN_POINT('Ctrl Pts',(45.2684670035906,16.6657177341567,6.81663461998405));
#899=CARTESIAN_POINT('Ctrl Pts',(43.8915629792222,17.8906097593577,7.43838035411905));
#900=CARTESIAN_POINT('Ctrl Pts',(41.1077325683703,20.4915877145852,8.00651775402791));
#901=CARTESIAN_POINT('Ctrl Pts',(39.7019029854233,21.8688441898033,7.95292369357007));
#902=CARTESIAN_POINT('Ctrl Pts',(37.446178543668,24.1871429679424,7.41793166784567));
#903=CARTESIAN_POINT('Ctrl Pts',(36.3848827597905,25.3230944749297,6.97876289238843));
#904=CARTESIAN_POINT('Ctrl Pts',(34.4491582432427,27.4915577753796,5.68553028324043));
#905=CARTESIAN_POINT('Ctrl Pts',(33.5737425655385,28.5243623086525,4.83343553343937));
#906=CARTESIAN_POINT('Ctrl Pts',(32.4333429702464,29.9151671626097,3.16649733632427));
#907=CARTESIAN_POINT('Ctrl Pts',(32.0054644468929,30.4527283348186,2.34660476407736));
#908=CARTESIAN_POINT('Ctrl Pts',(31.4124487291352,31.2093385223254,0.521730973146126));
#909=CARTESIAN_POINT('Ctrl Pts',(31.25,31.4220874748207,-0.486727878210479));
#910=CARTESIAN_POINT('Ctrl Pts',(31.25,31.4220874748207,-2.43969086619584));
#911=CARTESIAN_POINT('Ctrl Pts',(31.4124487291352,31.2093385223254,-3.44814971755245));
#912=CARTESIAN_POINT('Ctrl Pts',(32.0054644468929,30.4527283348186,-5.27302350848369));
#913=CARTESIAN_POINT('Ctrl Pts',(32.4333429702464,29.9151671626097,-6.09291608073059));
#914=CARTESIAN_POINT('Ctrl Pts',(33.5737425655385,28.5243623086525,-7.7598542778457));
#915=CARTESIAN_POINT('Ctrl Pts',(34.4491582432427,27.4915577753796,-8.61194902764676));
#916=CARTESIAN_POINT('Ctrl Pts',(36.3848827597905,25.3230944749297,-9.90518163679475));
#917=CARTESIAN_POINT('Ctrl Pts',(37.446178543668,24.1871429679424,-10.344350412252));
#918=CARTESIAN_POINT('Ctrl Pts',(38.4615384615385,23.1436167227159,-10.5851641611504));
#919=CARTESIAN_POINT('Origin',(-40.625,43.9220874748207,-1.46320937220316));
#920=CARTESIAN_POINT('',(-31.25,6.42208747482066,-1.46320937220317));
#921=CARTESIAN_POINT('',(-31.25,43.9220874748207,-1.46320937220316));
#922=CARTESIAN_POINT('Origin',(-40.625,6.42208747482066,-1.46320937220316));
#923=CARTESIAN_POINT('Origin',(0.,6.42208747482066,-1.46320944205236));
#924=CARTESIAN_POINT('',(-34.375,6.42208747482066,-1.46320937220317));
#925=CARTESIAN_POINT('Origin',(-40.625,6.42208747482066,-1.46320937220316));
#926=CARTESIAN_POINT('Origin',(0.,43.9220874748207,-42.0882095119016));
#927=CARTESIAN_POINT('',(9.375,43.9220874748207,-42.0882095119016));
#928=CARTESIAN_POINT('Origin',(0.,43.9220874748207,39.1617906277968));
#929=CARTESIAN_POINT('',(9.375,6.42208747482066,39.1617906277968));
#930=CARTESIAN_POINT('',(9.375,43.9220874748207,39.1617906277968));
#931=CARTESIAN_POINT('Origin',(0.,6.42208747482066,39.1617906277968));
#932=CARTESIAN_POINT('Origin',(0.,6.42208747482066,-1.46320944205236));
#933=CARTESIAN_POINT('',(6.25,6.42208747482066,39.1617906277968));
#934=CARTESIAN_POINT('Origin',(0.,6.42208747482066,39.1617906277968));
#935=CARTESIAN_POINT('Origin',(40.625,43.9220874748207,-1.46320937220316));
#936=CARTESIAN_POINT('',(50.,6.42208747482066,-1.46320937220317));
#937=CARTESIAN_POINT('',(50.,43.9220874748207,-1.46320937220316));
#938=CARTESIAN_POINT('Origin',(40.625,6.42208747482066,-1.46320937220316));
#939=CARTESIAN_POINT('Origin',(0.,6.42208747482066,-1.46320944205236));
#940=CARTESIAN_POINT('',(46.875,6.42208747482066,-1.46320937220317));
#941=CARTESIAN_POINT('Origin',(40.625,6.42208747482066,-1.46320937220316));
#942=CARTESIAN_POINT('Origin',(0.,43.9220874748207,39.1617906277968));
#943=CARTESIAN_POINT('',(6.25,43.9220874748207,39.1617906277968));
#944=CARTESIAN_POINT('Origin',(40.625,43.9220874748207,-1.46320937220316));
#945=CARTESIAN_POINT('',(46.875,43.9220874748207,-1.46320937220316));
#946=CARTESIAN_POINT('Origin',(-40.625,43.9220874748207,-1.46320937220316));
#947=CARTESIAN_POINT('',(-34.375,43.9220874748207,-1.46320937220316));
#948=CARTESIAN_POINT('Origin',(0.,43.9220874748207,-1.46320937220316));
#949=CARTESIAN_POINT('',(9.25,43.9220874748207,-1.46320937220317));
#950=CARTESIAN_POINT('',(9.25,43.9220874748207,-1.46320937220316));
#951=CARTESIAN_POINT('',(9.25,43.9220874748207,-1.46320937220317));
#952=CARTESIAN_POINT('Origin',(0.,43.9220874748207,-1.46320937220316));
#953=CARTESIAN_POINT('Origin',(0.,43.9220874748207,-1.46320937220316));
#954=CARTESIAN_POINT('Origin',(0.,43.9220874748207,-1.46320937220316));
#955=CARTESIAN_POINT('',(6.375,43.9220874748207,-1.46320937220317));
#956=CARTESIAN_POINT('',(6.375,43.9220874748207,-1.46320937220317));
#957=CARTESIAN_POINT('',(6.375,43.9220874748207,-1.46320937220317));
#958=CARTESIAN_POINT('Origin',(0.,43.9220874748207,-1.46320937220316));
#959=CARTESIAN_POINT('Origin',(0.,43.9220874748207,-1.46320937220316));
#960=CARTESIAN_POINT('Origin',(0.,-6.07791252517934,-1.46320937220316));
#961=CARTESIAN_POINT('',(-62.5,-6.07791252517934,-1.46320937220316));
#962=UNCERTAINTY_MEASURE_WITH_UNIT(LENGTH_MEASURE(0.01),#966,
'DISTANCE_ACCURACY_VALUE',
'Maximum model space distance between geometric entities at asserted c
onnectivities');
#963=UNCERTAINTY_MEASURE_WITH_UNIT(LENGTH_MEASURE(0.01),#966,
'DISTANCE_ACCURACY_VALUE',
'Maximum model space distance between geometric entities at asserted c
onnectivities');
#964=(
GEOMETRIC_REPRESENTATION_CONTEXT(3)
GLOBAL_UNCERTAINTY_ASSIGNED_CONTEXT((#962))
GLOBAL_UNIT_ASSIGNED_CONTEXT((#966,#968,#969))
REPRESENTATION_CONTEXT('','3D')
);
#965=(
GEOMETRIC_REPRESENTATION_CONTEXT(3)
GLOBAL_UNCERTAINTY_ASSIGNED_CONTEXT((#963))
GLOBAL_UNIT_ASSIGNED_CONTEXT((#966,#968,#969))
REPRESENTATION_CONTEXT('','3D')
);
#966=(
LENGTH_UNIT()
NAMED_UNIT(*)
SI_UNIT(.MILLI.,.METRE.)
);
#967=(
LENGTH_UNIT()
NAMED_UNIT(*)
SI_UNIT($,.METRE.)
);
#968=(
NAMED_UNIT(*)
PLANE_ANGLE_UNIT()
SI_UNIT($,.RADIAN.)
);
#969=(
NAMED_UNIT(*)
SI_UNIT($,.STERADIAN.)
SOLID_ANGLE_UNIT()
);
#970=SHAPE_DEFINITION_REPRESENTATION(#971,#972);
#971=PRODUCT_DEFINITION_SHAPE('',$,#974);
#972=SHAPE_REPRESENTATION('',(#411),#964);
#973=PRODUCT_DEFINITION_CONTEXT('part definition',#978,'design');
#974=PRODUCT_DEFINITION('Frame Stand','Frame Stand',#975,#973);
#975=PRODUCT_DEFINITION_FORMATION('',$,#980);
#976=PRODUCT_RELATED_PRODUCT_CATEGORY('Frame Stand','Frame Stand',(#980));
#977=APPLICATION_PROTOCOL_DEFINITION('international standard',
'automotive_design',2009,#978);
#978=APPLICATION_CONTEXT(
'Core Data for Automotive Mechanical Design Process');
#979=PRODUCT_CONTEXT('part definition',#978,'mechanical');
#980=PRODUCT('Frame Stand','Frame Stand',$,(#979));
#981=PRESENTATION_STYLE_ASSIGNMENT((#983));
#982=PRESENTATION_STYLE_ASSIGNMENT((#984));
#983=SURFACE_STYLE_USAGE(.BOTH.,#985);
#984=SURFACE_STYLE_USAGE(.BOTH.,#986);
#985=SURFACE_SIDE_STYLE('',(#987));
#986=SURFACE_SIDE_STYLE('',(#988));
#987=SURFACE_STYLE_FILL_AREA(#989);
#988=SURFACE_STYLE_FILL_AREA(#990);
#989=FILL_AREA_STYLE('Mirror',(#991));
#990=FILL_AREA_STYLE(
'EPX 150 - Air Baked (with Carbon M2 M3 L1 3D Printers)',(#992));
#991=FILL_AREA_STYLE_COLOUR('Mirror',#993);
#992=FILL_AREA_STYLE_COLOUR(
'EPX 150 - Air Baked (with Carbon M2 M3 L1 3D Printers)',#994);
#993=COLOUR_RGB('Mirror',0.96078431372549,0.96078431372549,0.964705882352941);
#994=COLOUR_RGB(
'EPX 150 - Air Baked (with Carbon M2 M3 L1 3D Printers)',0.247058823529412,
0.247058823529412,0.247058823529412);
ENDSEC;
END-ISO-10303-21;
